<!DOCTYPE svg PUBLIC "-//W3C//DTD SVG 1.1//EN" "http://www.w3.org/Graphics/SVG/1.1/DTD/svg11.dtd">
<!-- Uploaded to: SVG Repo, www.svgrepo.com, Transformed by: SVG Repo Mixer Tools -->
<svg fill="#fafafa" width="800px" height="800px" viewBox="-6.08 -6.08 44.16 44.16" version="1.1" xmlns="http://www.w3.org/2000/svg" stroke="#fafafa">
<g id="SVGRepo_bgCarrier" stroke-width="0">
<path transform="translate(-6.08, -6.08), scale(2.76)" fill="#ffa200" d="M9.166.33a2.25 2.25 0 00-2.332 0l-5.25 3.182A2.25 2.25 0 00.5 5.436v5.128a2.25 2.25 0 001.084 1.924l5.25 3.182a2.25 2.25 0 002.332 0l5.25-3.182a2.25 2.25 0 001.084-1.924V5.436a2.25 2.25 0 00-1.084-1.924L9.166.33z" strokewidth="0"/>
</g>
<g id="SVGRepo_tracerCarrier" stroke-linecap="round" stroke-linejoin="round"/>
<g id="SVGRepo_iconCarrier"> <title>eat</title> <path d="M28 4v12h-4v12h-4v-24h8zM12 8h-4v-4h-4v8h4v16h4v-16h4v-8h-4v4z"/> </g>
</svg>